# xmcd
#
# Track frame offsets: 
#        150
#        25276
#        54752
#        87828
#        109503
#        136879
#        168080
#        204757
#        228758
#        270910
#
# Disc length: 3983 seconds
#
# Revision: 1
# Processed by: cddbd v1.5.2PL0 Copyright (c) Steve Scherf et al.
# Submitted via: ExactAudioCopy v0.95b3
#
DISCID=670f8d0a
DTITLE=Steve Kuhn Trio - Easy To Love
DYEAR=2004
DGENRE=Jazz
TTITLE0=Super Jet
TTITLE1=Dear Old Stockholm
TTITLE2=Emily
TTITLE3=Airegin
TTITLE4=Morning Dew
TTITLE5=New Valley
TTITLE6=Dream Dancing
TTITLE7=Two For The Road
TTITLE8=Be My Love
TTITLE9=Easy To Love
EXTD=
EXTT0=
EXTT1=
EXTT2=
EXTT3=
EXTT4=
EXTT5=
EXTT6=
EXTT7=
EXTT8=
EXTT9=
PLAYORDER=
